<?xml version="1.0" encoding="UTF-8" standalone="no" ?>
<!DOCTYPE svg PUBLIC "-//W3C//DTD SVG 1.1//EN" "http://www.w3.org/Graphics/SVG/1.1/DTD/svg11.dtd">
<svg xmlns="http://www.w3.org/2000/svg" xmlns:xlink="http://www.w3.org/1999/xlink" version="1.1" width="1280" height="720" viewBox="-54.55 98.18 1280 720" xml:space="preserve">
<desc>Created with Fabric.js 5.2.4</desc>
<defs>
</defs>
<g transform="matrix(1 0 0 1 640 360)" id="e44fe60e-5db2-40db-9cdc-90fa12512776"  >
<rect style="stroke: none; stroke-width: 1; stroke-dasharray: none; stroke-linecap: butt; stroke-dashoffset: 0; stroke-linejoin: miter; stroke-miterlimit: 4; fill: rgb(255,255,255); fill-rule: nonzero; opacity: 1; visibility: hidden;" vector-effect="non-scaling-stroke"  x="-640" y="-360" rx="0" ry="0" width="1280" height="720" />
</g>
<g transform="matrix(Infinity NaN NaN Infinity 0 0)" id="12b2dc7d-0d9c-48fb-9eb6-b8598d7db973"  >
</g>
<g transform="matrix(1.11 0 0 1.11 580.77 449.86)"  >
<g style="" vector-effect="non-scaling-stroke"   >
		<g transform="matrix(1 0 0 1 21.47 0.8)"  >
<path style="stroke: none; stroke-width: 1; stroke-dasharray: none; stroke-linecap: butt; stroke-dashoffset: 0; stroke-linejoin: miter; stroke-miterlimit: 4; fill: rgb(250,50,49); fill-rule: nonzero; opacity: 1;" vector-effect="non-scaling-stroke"  transform=" translate(-19.5, -67.37)" d="M 0 0 C 1 1 1 1 1.11352539 4.32641602 C 1.11336629 5.80225556 1.10767314 7.27810069 1.09765625 8.75390625 C 1.0962413 9.52935287 1.09482635 10.3047995 1.09336853 11.10374451 C 1.08775345 13.59003494 1.07519846 16.0762366 1.0625 18.5625 C 1.05748694 20.24413933 1.0529237 21.92578006 1.04882812 23.60742188 C 1.03777913 27.73831566 1.02050445 31.86914276 1 36 C 0.01 36 -0.98 36 -2 36 C -7.12287165 26.39176962 -12.19791464 16.77365609 -17 7 C -18.56776025 11.70328074 -18.22579311 16.44889772 -18.25 21.375 C -18.270625 22.4165625 -18.29125 23.458125 -18.3125 24.53125 C -18.33408895 28.75189019 -18.29622707 32.18911579 -16.83984375 36.17578125 C -14.36348124 38.63111308 -12.75831224 38.6908831 -9.3125 38.8125 C -8.31863281 38.86019531 -7.32476562 38.90789062 -6.30078125 38.95703125 C -5.54152344 38.97121094 -4.78226563 38.98539063 -4 39 C -4 39.66 -4 40.32 -4 41 C -3.01604248 40.98428955 -2.03208496 40.9685791 -1.01831055 40.95239258 C 2.63248508 40.89809022 6.28324501 40.86364915 9.93432617 40.83520508 C 11.51446536 40.82011906 13.09456269 40.7996475 14.67456055 40.77368164 C 16.94590585 40.73728874 19.21669759 40.72027238 21.48828125 40.70703125 C 22.54780754 40.68380547 22.54780754 40.68380547 23.6287384 40.66011047 C 28.46810961 40.65845016 28.46810961 40.65845016 30.68557739 42.0823822 C 32.69116328 45.00834161 32.38677434 47.50496838 32.40063477 51.02246094 C 32.41110336 52.08889832 32.41110336 52.08889832 32.42178345 53.17687988 C 32.44179259 55.52949826 32.44126016 57.88167899 32.44140625 60.234375 C 32.45317909 61.8724282 32.46654309 63.51047068 32.48143005 65.14849854 C 32.51766227 69.46617808 32.53782554 73.78376266 32.55297852 78.1015625 C 32.57777301 84.99824536 32.61765967 91.89471796 32.67487907 98.79120636 C 32.69113757 101.19465602 32.69498018 103.59790607 32.69789124 106.00140381 C 32.70767585 107.48759293 32.71794048 108.97377899 32.72875977 110.45996094 C 32.73517235 112.39497467 32.73517235 112.39497467 32.74171448 114.36907959 C 33.01740158 118.24462751 33.80595797 121.32118293 35 125 C 39.78655805 124.71110084 39.78655805 124.71110084 43.8125 122.4375 C 44.204375 121.963125 44.59625 121.48875 45 121 C 45.66 121 46.32 121 47 121 C 47.28875 120.401875 47.5775 119.80375 47.875 119.1875 C 49 117 49 117 51 114 C 51.33930682 111.10416985 51.33930682 111.10416985 51.33813477 107.77197266 C 51.36057755 106.48698883 51.38302032 105.202005 51.40614319 103.87808228 C 51.41915798 102.47342013 51.43088066 101.0687455 51.44140625 99.6640625 C 51.44830915 98.95593792 51.45521206 98.24781334 51.46232414 97.51823044 C 51.49814466 93.77126596 51.52169237 90.02445181 51.53540039 86.27734375 C 51.55195677 82.41076995 51.61039257 78.54602257 51.67854404 74.68006325 C 51.72335743 71.70313299 51.73689656 68.72663972 51.74201775 65.74940109 C 51.74990537 64.32438231 51.76953375 62.89937731 51.80124092 61.47468948 C 52.28073543 53.7676379 52.28073543 53.7676379 49.39059448 46.98748779 C 47.30149944 45.38288181 47.30149944 45.38288181 44 44 C 44.33 43.01 44.66 42.02 45 41 C 49.6447121 40.9011197 54.28881173 40.8285285 58.93432617 40.78027344 C 60.51451285 40.76015814 62.09462509 40.73286196 63.67456055 40.69824219 C 65.94598748 40.64971657 68.21643058 40.62703191 70.48828125 40.609375 C 71.54780754 40.57840729 71.54780754 40.57840729 72.6287384 40.54681396 C 77.49701033 40.54458699 77.49701033 40.54458699 79.68933105 42.52954102 C 81.51794093 45.9762586 81.39512153 49.17656256 81.34057617 52.98144531 C 81.34101425 53.7818222 81.34145233 54.5821991 81.34190369 55.40682983 C 81.33981672 58.04751128 81.3164903 60.68755472 81.29296875 63.328125 C 81.28737246 65.1608648 81.28310252 66.99360909 81.28010559 68.82635498 C 81.26865939 73.64661075 81.23919411 78.46659469 81.20599365 83.28674316 C 81.17528795 88.2067497 81.16159918 93.12680023 81.14648438 98.046875 C 81.11432423 107.698036 81.06313055 117.34899538 81 127 C 81.78375 127.28875 82.5675 127.5775 83.375 127.875 C 86 129 86 129 88 131 C 88 131.99 88 132.98 88 134 C 85.01099603 135.49450198 81.93542181 135.18336418 78.65625 135.203125 C 77.93135376 135.20882507 77.20645752 135.21452515 76.45959473 135.22039795 C 74.92636576 135.22984603 73.39311651 135.23638117 71.85986328 135.24023438 C 69.50908323 135.24996241 67.15916935 135.2809949 64.80859375 135.3125 C 63.3203177 135.31902788 61.83203539 135.32427919 60.34375 135.328125 C 59.63851196 135.3404718 58.93327393 135.3528186 58.20666504 135.36553955 C 56.22460938 135.35644531 56.22460938 135.35644531 53 135 C 50.86413322 131.79619983 50.76867825 130.98060033 50.875 127.3125 C 50.89304687 126.50425781 50.91109375 125.69601562 50.9296875 124.86328125 C 50.95289063 124.24839844 50.97609375 123.63351562 51 123 C 50.39414062 123.53109375 49.78828125 124.0621875 49.1640625 124.609375 C 40.95737938 131.52824015 33.59104645 135.84813756 22.609375 135.3828125 C 16.93197208 134.5499001 13.29004983 132.23271428 9.1875 128.3125 C 0.63179248 115.35671432 1.84803549 97.65820832 2.11328125 82.734375 C 2.12817596 81.7587561 2.14307068 80.78313721 2.15841675 79.7779541 C 2.22162676 75.73433224 2.28662978 71.69155752 2.39770508 67.64892578 C 2.47615764 64.65635181 2.51674495 61.66523941 2.55078125 58.671875 C 2.58488602 57.75839294 2.61899078 56.84491089 2.65412903 55.90374756 C 2.66469897 53.46580698 2.59623679 51.36378372 2 49 C -1.99235305 45.09209552 -5.61091616 44.6702929 -11 44 C -11.00829823 54.75303117 -10.9845305 65.50546611 -10.9197216 76.25831985 C -10.89063817 81.25127892 -10.87263926 86.2437674 -10.87988281 91.23681641 C -10.88646593 96.05471353 -10.86404943 100.87167994 -10.82144547 105.68938446 C -10.81029602 107.528162 -10.80963065 109.36703373 -10.81957626 111.20581818 C -10.83171833 113.78049955 -10.80672836 116.3523266 -10.77294922 118.92675781 C -10.78517014 119.68848801 -10.79739105 120.4502182 -10.8099823 121.23503113 C -10.81763892 123.63817463 -10.81763892 123.63817463 -10 127 C -7.05524028 129.34368033 -7.05524028 129.34368033 -4 131 C -4 131.99 -4 132.98 -4 134 C -7.91399337 135.30466446 -11.63972005 135.1427824 -15.71875 135.1328125 C -17.00017883 135.13424759 -17.00017883 135.13424759 -18.30749512 135.13571167 C -20.11303786 135.13639193 -21.91858306 135.13454835 -23.72412109 135.13037109 C -26.48931364 135.12502068 -29.25434376 135.13032127 -32.01953125 135.13671875 C -33.77343786 135.13605794 -35.52734437 135.13477672 -37.28125 135.1328125 C -38.10943237 135.13483673 -38.93761475 135.13686096 -39.79089355 135.13894653 C -43.11287382 135.12536316 -45.82653425 135.05782192 -49 134 C -48.9375 132.25 -48.9375 132.25 -48 130 C -45.75598793 128.48621181 -43.38545639 127.28885045 -41 126 C -41.00666183 124.86375687 -41.01332367 123.72751373 -41.02018738 122.55683899 C -41.08123158 111.80341745 -41.126084 101.05003147 -41.15543652 90.29647541 C -41.17103465 84.76910951 -41.19216513 79.24188447 -41.22631836 73.71459961 C -41.25912162 68.37182942 -41.27689693 63.02919399 -41.28463173 57.6863308 C -41.29013782 55.6567695 -41.30088895 53.62721486 -41.31719017 51.59771156 C -41.43847697 35.85917768 -41.43696339 21.80511961 -30.6875 9.3125 C -21.52851482 1.43151275 -12.08003963 -2.28884961 0 0 Z" stroke-linecap="round" />
</g>
		<g transform="matrix(1 0 0 1 -190.64 8.42)"  >
<path style="stroke: none; stroke-width: 1; stroke-dasharray: none; stroke-linecap: butt; stroke-dashoffset: 0; stroke-linejoin: miter; stroke-miterlimit: 4; fill: rgb(251,49,49); fill-rule: nonzero; opacity: 1;" vector-effect="non-scaling-stroke"  transform=" translate(-43.39, -60)" d="M 0 0 C 28.71 0 57.42 0 87 0 C 88 3 88 3 87.26660156 4.73217773 C 86.8950293 5.39677002 86.52345703 6.0613623 86.140625 6.74609375 C 83.07932991 13.24673543 83.084915 19.98393203 82.75 27.0625 C 82.67345676 28.41870999 82.59534325 29.77483231 82.515625 31.13085938 C 82.32834035 34.42004607 82.15689991 37.70924757 82 41 C 80.35 41 78.7 41 77 41 C 76.79246094 40.07960937 76.58492188 39.15921875 76.37109375 38.2109375 C 73.5320924 26.54608676 70.21094593 14.26025433 60 7 C 55.4717886 5.21531081 50.76490239 4.51368271 46 5.6875 C 42.75218991 6.78676422 42.75218991 6.78676422 41 10 C 40.71113028 12.16036331 40.71113028 12.16036331 40.77294922 14.56323242 C 40.77317581 15.94432442 40.77317581 15.94432442 40.77340698 17.35331726 C 40.78372955 18.34402725 40.79405212 19.33473724 40.8046875 20.35546875 C 40.80893234 21.88062859 40.80893234 21.88062859 40.81326294 23.43659973 C 40.82446617 26.68701908 40.84957114 29.93716381 40.875 33.1875 C 40.88502961 35.38996998 40.89415549 37.59244428 40.90234375 39.79492188 C 40.92440595 45.19670843 40.95788492 50.59833459 41 56 C 42.16233154 54.57373291 42.16233154 54.57373291 43.34814453 53.11865234 C 47.62463301 47.87108351 53.15856633 44.41246618 59.875 43.4375 C 63.24169497 44.0435051 64.76016145 44.4155709 67 47 C 68.06234099 51.66663444 68.13213522 56.26211076 68.09765625 61.0234375 C 68.0962413 61.76961334 68.09482635 62.51578918 68.09336853 63.28457642 C 68.08780874 65.64809318 68.07526389 68.01151227 68.0625 70.375 C 68.0574798 71.98567571 68.0529178 73.59635291 68.04882812 75.20703125 C 68.03785251 79.13805799 68.02061596 83.06901248 68 87 C 66.68 87 65.36 87 64 87 C 63.63648437 85.2984375 63.63648437 85.2984375 63.265625 83.5625 C 60.9787948 70.15651039 60.9787948 70.15651039 53 60 C 49.26953988 60.13816519 46.62129029 60.67706183 43.30395508 62.40136719 C 39.74313022 66.41762445 40.37585608 70.26452294 40.51171875 75.453125 C 40.52233086 76.97616241 40.52233086 76.97616241 40.53315735 78.52996826 C 40.56113042 81.77073053 40.62387645 85.0097606 40.6875 88.25 C 40.71257901 90.4478917 40.73539286 92.64581051 40.75585938 94.84375 C 40.81096707 100.22983337 40.89726183 105.61462308 41 111 C 44.3 112.65 47.6 114.3 51 116 C 51 117.32 51 118.64 51 120 C 34.17 120 17.34 120 0 120 C -0.33 118.68 -0.66 117.36 -1 116 C 2.63 114.35 6.26 112.7 10 111 C 10 77.34 10 43.68 10 9 C 6.37 7.35 2.74 5.7 -1 4 C -0.67 2.68 -0.34 1.36 0 0 Z" stroke-linecap="round" />
</g>
		<g transform="matrix(1 0 0 1 194.07 20.67)"  >
<path style="stroke: none; stroke-width: 1; stroke-dasharray: none; stroke-linecap: butt; stroke-dashoffset: 0; stroke-linejoin: miter; stroke-miterlimit: 4; fill: rgb(250,50,49); fill-rule: nonzero; opacity: 1;" vector-effect="non-scaling-stroke"  transform=" translate(24.9, -42.25)" d="M 0 0 C 8.45330166 5.90684627 12.9977882 12.64003311 16.0625 22.375 C 16 25 16 25 14.54052734 26.8684082 C 11.07527071 29.7758804 7.3088839 31.68652424 3.2890625 33.73046875 C 2.44330658 34.16635818 1.59755066 34.60224762 0.72616577 35.05134583 C -1.05885738 35.96862567 -2.84588498 36.88201402 -4.63476562 37.79174805 C -7.36430727 39.18205361 -10.08471879 40.58912276 -12.8046875 41.99804688 C -14.54374649 42.889045 -16.28331352 43.77905237 -18.0234375 44.66796875 C -18.83299896 45.08773483 -19.64256042 45.50750092 -20.47665405 45.93998718 C -24.6652011 48.05448753 -28.25527139 49.55402401 -33 50 C -30.89929541 56.59550826 -29.08173009 62.16615919 -24 67 C -17.79252532 70.03008933 -10.74051534 70.26602058 -4.20703125 68.0546875 C 0.77374662 65.65848876 4.94339246 62.73634905 9 59 C 9.66 59.33 10.32 59.66 11 60 C 8.18868775 70.4314481 2.93956419 78.75366205 -6 85 C -15.30248276 90.04203761 -24.68834387 91.66110828 -35.0625 88.875 C -45.60314777 85.26679094 -54.09126997 79.07151922 -59.53515625 69.22265625 C -66.56707684 54.27726234 -67.71500277 38.71494672 -63.06640625 22.8046875 C -59.08986756 12.04464164 -51.347534 3.12586175 -41 -2 C -27.9920549 -7.35678457 -12.28170984 -7.15179838 0 0 Z M -24.63671875 4.78125 C -31.53666762 14.37513357 -34.17251307 25.71361447 -34.0625 37.375 C -34.05347656 38.62023437 -34.04445313 39.86546875 -34.03515625 41.1484375 C -34.02355469 42.08945313 -34.01195312 43.03046875 -34 44 C -23.63322762 35.66150917 -6.56416914 19.94918396 -4.5625 5.9375 C -4.69842134 2.86032044 -4.69842134 2.86032044 -7.125 1.125 C -13.47111781 -1.35826349 -19.96380261 -0.30431028 -24.63671875 4.78125 Z" stroke-linecap="round" />
</g>
		<g transform="matrix(1 0 0 1 120.91 20.98)"  >
<path style="stroke: none; stroke-width: 1; stroke-dasharray: none; stroke-linecap: butt; stroke-dashoffset: 0; stroke-linejoin: miter; stroke-miterlimit: 4; fill: rgb(250,50,49); fill-rule: nonzero; opacity: 1;" vector-effect="non-scaling-stroke"  transform=" translate(33.05, -38.56)" d="M 0 0 C -1.59434371 5.7422298 -3.41687174 11.39338022 -5.4375 17 C -5.82808594 18.093125 -6.21867187 19.18625 -6.62109375 20.3125 C -8.11383997 23.22187507 -8.95879082 23.96689285 -12 25 C -14.995475 20.48947261 -16.46301077 15.76409598 -17.9296875 10.61523438 C -19.67401585 4.963381 -22.24544288 0.6244824 -27.4375 -2.4375 C -30.56239564 -3.1234527 -32.90578942 -2.71958386 -36 -2 C -37.79054924 1.6753379 -38.25124676 4.29642633 -37.1875 8.1875 C -33.61874586 17.50069612 -25.82634613 24.4056943 -18.484375 30.82421875 C -9.66966446 38.54402027 0.14795824 47.96835734 1.3125 60.3125 C 0.65173443 68.1095337 -2.02967303 72.87979479 -7.74609375 78.23828125 C -18.58135736 86.70743877 -32.96170063 85.91159519 -46 85 C -53.25548248 83.94555537 -60.24421438 81.8351312 -67 79 C -64.85406445 70.45115106 -62.0505873 62.25949525 -59 54 C -56.72265625 53.953125 -56.72265625 53.953125 -54 55 C -52.36666953 57.74736189 -51.43877067 60.72498462 -50.4375 63.75 C -47.52352896 72.70427257 -47.52352896 72.70427257 -41.04296875 79.30078125 C -38.68767782 80.10689421 -36.79772741 80.23268595 -34.3125 80.1875 C -33.52488281 80.18105469 -32.73726563 80.17460937 -31.92578125 80.16796875 C -29.99300636 80.20733669 -29.99300636 80.20733669 -29 79 C -28.10874046 70.97866416 -30.05588214 66.30420976 -35 60 C -40.00374794 54.37307466 -45.4878055 49.21478787 -51.25 44.375 C -58.75614644 37.93222431 -65.87070079 29.5404249 -67.375 19.49609375 C -67.66464356 13.56745205 -66.64024615 8.75795553 -63 4 C -46.43659949 -12.15211968 -18.81988599 -11.55905255 0 0 Z" stroke-linecap="round" />
</g>
		<g transform="matrix(1 0 0 1 -70.03 9.46)"  >
<path style="stroke: none; stroke-width: 1; stroke-dasharray: none; stroke-linecap: butt; stroke-dashoffset: 0; stroke-linejoin: miter; stroke-miterlimit: 4; fill: rgb(249,50,49); fill-rule: nonzero; opacity: 1;" vector-effect="non-scaling-stroke"  transform=" translate(-6.75, -59.22)" d="M 0 0 C 1.30453125 -0.01417969 2.6090625 -0.02835938 3.953125 -0.04296875 C 8.79720469 0.25106489 13.22335954 0.66085954 16.75 4.1875 C 16.97705078 6.25048828 16.97705078 6.25048828 16.9453125 8.7578125 C 16.93886719 9.65371094 16.93242187 10.54960937 16.92578125 11.47265625 C 16.90902344 12.40980469 16.89226562 13.34695312 16.875 14.3125 C 16.86597656 15.25738281 16.85695312 16.20226562 16.84765625 17.17578125 C 16.82404668 19.51312827 16.78817494 21.85034549 16.75 24.1875 C 20.71 24.1875 24.67 24.1875 28.75 24.1875 C 28.75 25.5075 28.75 26.8275 28.75 28.1875 C 24.79 28.1875 20.83 28.1875 16.75 28.1875 C 17.08 54.5875 17.41 80.9875 17.75 108.1875 C 21.71 105.8775 25.67 103.5675 29.75 101.1875 C 31.07 101.8475 32.39 102.5075 33.75 103.1875 C 27.78631647 109.76811631 19.44037026 117.34711091 10.35546875 118.48828125 C 4.0804215 118.51869343 -1.89274887 118.16033306 -6.78515625 113.828125 C -11.39088962 108.61814089 -12.58855916 103.52437899 -12.90234375 96.7578125 C -12.94101059 95.99236115 -12.97967743 95.22690979 -13.01951599 94.43826294 C -13.55056872 81.65641576 -13.0872722 68.84606146 -12.8125 56.0625 C -12.75839222 53.35028659 -12.70632073 50.63803533 -12.65429688 47.92578125 C -12.52656315 41.34619845 -12.39131662 34.76680437 -12.25 28.1875 C -14.23 28.1875 -16.21 28.1875 -18.25 28.1875 C -18.25 26.8675 -18.25 25.5475 -18.25 24.1875 C -16.27 24.1875 -14.29 24.1875 -12.25 24.1875 C -11.78707074 15.13497702 -11.78707074 15.13497702 -14.875 7.078125 C -16.97516936 5.55618421 -16.97516936 5.55618421 -20.25 4.1875 C -19.92 3.1975 -19.59 2.2075 -19.25 1.1875 C -12.8377578 0.4267255 -6.4530177 0.06013996 0 0 Z" stroke-linecap="round" />
</g>
		<g transform="matrix(1 0 0 1 -122.03 21.31)"  >
<path style="stroke: none; stroke-width: 1; stroke-dasharray: none; stroke-linecap: butt; stroke-dashoffset: 0; stroke-linejoin: miter; stroke-miterlimit: 4; fill: rgb(249,50,50); fill-rule: nonzero; opacity: 1;" vector-effect="non-scaling-stroke"  transform=" translate(-21, -46.89)" d="M 0 0 C 4.50232334 -0.07417023 9.00429091 -0.1286105 13.50708008 -0.16479492 C 15.03871861 -0.17987936 16.57031398 -0.20034978 18.10180664 -0.22631836 C 20.30365654 -0.26271847 22.50493533 -0.27972913 24.70703125 -0.29296875 C 25.39150833 -0.30845261 26.07598541 -0.32393646 26.78120422 -0.33988953 C 31.53585263 -0.34157177 31.53585263 -0.34157177 33.89331055 1.39331055 C 36.41716461 5.05743664 36.13415302 8.35827055 36.11352539 12.66259766 C 36.11367142 13.45292892 36.11381744 14.24326019 36.1139679 15.05754089 C 36.11326983 17.67640911 36.10548239 20.29520667 36.09765625 22.9140625 C 36.09579169 24.72724366 36.09436797 26.54042533 36.09336853 28.35360718 C 36.08954632 33.13103623 36.07971855 37.90843499 36.06866455 42.68585205 C 36.05844407 47.55879303 36.05386954 52.4317389 36.04882812 57.3046875 C 36.03809603 66.86980499 36.02102314 76.43489998 36 86 C 36.78761719 86.27585937 37.57523438 86.55171875 38.38671875 86.8359375 C 41.63558299 88.28311469 42.43883496 89.87766993 44 93 C 43 94 43 94 41.20933533 94.12025452 C 40.42990067 94.11803391 39.650466 94.11581329 38.84741211 94.11352539 C 37.96657455 94.11344986 37.085737 94.11337433 36.1782074 94.11329651 C 35.22092239 94.10813522 34.26363739 94.10297394 33.27734375 94.09765625 C 32.30213272 94.0962413 31.32692169 94.09482635 30.32215881 94.09336853 C 27.19390857 94.08775133 24.06572877 94.07519593 20.9375 94.0625 C 18.82226666 94.05748722 16.70703219 94.05292393 14.59179688 94.04882812 C 9.39450704 94.03777631 4.19725855 94.02102146 -1 94 C -1.33 92.68 -1.66 91.36 -2 90 C 3.75 86 3.75 86 6 86 C 6.16224642 76.04704647 6.28659684 66.09440786 6.3626852 56.14040089 C 6.39920601 51.51817404 6.44873314 46.89685234 6.52807617 42.27514648 C 6.6041804 37.81414093 6.64599897 33.35400539 6.6641407 28.89240074 C 6.67706722 27.19103992 6.7023113 25.48972634 6.7401104 23.78873634 C 6.79100395 21.40344335 6.79792172 19.02173559 6.79467773 16.63598633 C 6.81984467 15.93395584 6.8450116 15.23192535 6.87094116 14.50862122 C 6.82725355 11.53594306 6.54559013 9.53566675 4.38820076 7.41751671 C 2.2525982 5.83460542 2.2525982 5.83460542 -1 4 C -0.67 2.68 -0.34 1.36 0 0 Z" stroke-linecap="round" />
</g>
		<g transform="matrix(1 0 0 1 -180.98 -3.08)"  >
<path style="stroke: none; stroke-width: 1; stroke-dasharray: none; stroke-linecap: butt; stroke-dashoffset: 0; stroke-linejoin: miter; stroke-miterlimit: 4; fill: rgb(237,52,51); fill-rule: nonzero; opacity: 1;" vector-effect="non-scaling-stroke"  transform=" translate(-14.05, -38.5)" d="M 0 0 C 0.33 0 0.66 0 1 0 C 1.33 15.18 1.66 30.36 2 46 C 3.65 44.02 5.3 42.04 7 40 C 11.32871781 36.61775425 15.40978801 34.23083722 20.875 33.4375 C 24.24169497 34.0435051 25.76016145 34.4155709 28 37 C 29.06234099 41.66663444 29.13213522 46.26211076 29.09765625 51.0234375 C 29.0962413 51.76961334 29.09482635 52.51578918 29.09336853 53.28457642 C 29.08780874 55.64809318 29.07526389 58.01151227 29.0625 60.375 C 29.0574798 61.98567571 29.0529178 63.59635291 29.04882812 65.20703125 C 29.03785251 69.13805799 29.02061596 73.06901248 29 77 C 27.68 77 26.36 77 25 77 C 24.75765625 75.865625 24.5153125 74.73125 24.265625 73.5625 C 21.9787948 60.15651039 21.9787948 60.15651039 14 50 C 9.90080096 50.29812357 6.54387321 50.87367607 3 53 C 3 51.68 3 50.36 3 49 C 1.68 48.67 0.36 48.34 -1 48 C -0.67 32.16 -0.34 16.32 0 0 Z" stroke-linecap="round" />
</g>
		<g transform="matrix(1 0 0 1 -122.08 -55.53)"  >
<path style="stroke: none; stroke-width: 1; stroke-dasharray: none; stroke-linecap: butt; stroke-dashoffset: 0; stroke-linejoin: miter; stroke-miterlimit: 4; fill: rgb(243,51,51); fill-rule: nonzero; opacity: 1;" vector-effect="non-scaling-stroke"  transform=" translate(4.04, -13.05)" d="M 0 0 C 4.36045847 2.22136563 7.13277421 4.43567029 9 9 C 9.53635899 13.82723092 9.52017901 15.97890786 7.3125 20.3125 C 3.73770791 24.4669881 1.56223989 25.82641779 -3.9375 26.4375 C -8.2150513 26.25994127 -10.73416458 24.81013746 -14 22 C -16.88516342 18.5378039 -17.53917865 15.51203116 -17.3515625 10.9921875 C -16.57919747 6.61545234 -14.06326048 3.8860504 -10.75 1.125 C -7.10164042 -0.36751074 -3.84747819 -0.67896674 0 0 Z" stroke-linecap="round" />
</g>
		<g transform="matrix(1 0 0 1 115.97 52.08)"  >
<path style="stroke: none; stroke-width: 1; stroke-dasharray: none; stroke-linecap: butt; stroke-dashoffset: 0; stroke-linejoin: miter; stroke-miterlimit: 4; fill: rgb(247,49,50); fill-rule: nonzero; opacity: 1;" vector-effect="non-scaling-stroke"  transform=" translate(-21, -15.66)" d="M 0 0 C 2.27734375 -0.046875 2.27734375 -0.046875 5 1 C 6.63333047 3.74736189 7.56122933 6.72498462 8.5625 9.75 C 11.47647104 18.70427257 11.47647104 18.70427257 17.95703125 25.30078125 C 20.31232218 26.10689421 22.20227259 26.23268595 24.6875 26.1875 C 25.86892578 26.17783203 25.86892578 26.17783203 27.07421875 26.16796875 C 29.00699364 26.20733669 29.00699364 26.20733669 30 25 C 30.23192865 23.48530552 30.41215238 21.96245438 30.5625 20.4375 C 30.64628906 19.61121094 30.73007812 18.78492188 30.81640625 17.93359375 C 30.90728516 16.97646484 30.90728516 16.97646484 31 16 C 31.33 16 31.66 16 32 16 C 32.10824843 17.6026782 32.18570645 19.20745748 32.25 20.8125 C 32.29640625 21.70582031 32.3428125 22.59914063 32.390625 23.51953125 C 32 26 32 26 28 29 C 31.63 29 35.26 29 39 29 C 39 28.01 39 27.02 39 26 C 44.445 25.01 44.445 25.01 50 24 C 42.22651182 31.77348818 31.98934474 31.2798566 21.73852539 31.32568359 C 11.22389155 31.20997686 1.72071021 29.07939067 -8 25 C -5.85406445 16.45115106 -3.0505873 8.25949525 0 0 Z" stroke-linecap="round" />
</g>
		<g transform="matrix(1 0 0 1 -12.47 -48.92)"  >
<path style="stroke: none; stroke-width: 1; stroke-dasharray: none; stroke-linecap: butt; stroke-dashoffset: 0; stroke-linejoin: miter; stroke-miterlimit: 4; fill: rgb(218,58,58); fill-rule: nonzero; opacity: 1;" vector-effect="non-scaling-stroke"  transform=" translate(14.44, -17.66)" d="M 0 0 C 1 1 1 1 1.11352539 4.32641602 C 1.11336629 5.80225556 1.10767314 7.27810069 1.09765625 8.75390625 C 1.0962413 9.52935287 1.09482635 10.3047995 1.09336853 11.10374451 C 1.08775345 13.59003494 1.07519846 16.0762366 1.0625 18.5625 C 1.05748694 20.24413933 1.0529237 21.92578006 1.04882812 23.60742188 C 1.03777913 27.73831566 1.02050445 31.86914276 1 36 C 0.01 36 -0.98 36 -2 36 C -2 35.01 -2 34.02 -2 33 C -1.34 33.33 -0.68 33.66 0 34 C 0 23.44 0 12.88 0 2 C -8.40371521 1.32917961 -8.40371521 1.32917961 -13 4 C -12.67 7.3 -12.34 10.6 -12 14 C -13.72046505 11.7060466 -15.4094295 9.38585576 -17 7 C -18.10514766 10.31544299 -18.32107631 13.20410111 -18.5625 16.6875 C -18.64628906 17.86699219 -18.73007813 19.04648438 -18.81640625 20.26171875 C -18.87699219 21.16535156 -18.93757812 22.06898438 -19 23 C -19.33 23 -19.66 23 -20 23 C -20 18.05 -20 13.1 -20 8 C -21.65 7.67 -23.3 7.34 -25 7 C -26.8354799 8.33378575 -26.8354799 8.33378575 -28 10 C -28.66 9.67 -29.32 9.34 -30 9 C -21.29615713 0.9656835 -11.7325857 -2.22301624 0 0 Z" stroke-linecap="round" />
</g>
		<g transform="matrix(1 0 0 1 31.97 60.67)"  >
<path style="stroke: none; stroke-width: 1; stroke-dasharray: none; stroke-linecap: butt; stroke-dashoffset: 0; stroke-linejoin: miter; stroke-miterlimit: 4; fill: rgb(227,53,53); fill-rule: nonzero; opacity: 1;" vector-effect="non-scaling-stroke"  transform=" translate(2, -8.25)" d="M 0 0 C 0.33 0 0.66 0 1 0 C 1.66 1.98 2.32 3.96 3 6 C 8.3086849 5.41825155 8.3086849 5.41825155 13 3 C 16.1875 2.875 16.1875 2.875 19 3 C 11.56018532 10.65238082 4.39526908 16.07143398 -6.625 16.5 C -11.78369287 16.29540595 -15.81083687 15.03919678 -20 12 C -22 9.75 -22 9.75 -23 8 C -21.02 8.66 -19.04 9.32 -17 10 C -17 9.34 -17 8.68 -17 8 C -16.34 8 -15.68 8 -15 8 C -14.34 9.98 -13.68 11.96 -13 14 C -8.38 14 -3.76 14 1 14 C 0.67 9.38 0.34 4.76 0 0 Z" stroke-linecap="round" />
</g>
		<g transform="matrix(1 0 0 1 -171.92 15.92)"  >
<path style="stroke: none; stroke-width: 1; stroke-dasharray: none; stroke-linecap: butt; stroke-dashoffset: 0; stroke-linejoin: miter; stroke-miterlimit: 4; fill: rgb(246,50,51); fill-rule: nonzero; opacity: 1;" vector-effect="non-scaling-stroke"  transform=" translate(0.89, -15.5)" d="M 0 0 C 0.99 0.33 1.98 0.66 3 1 C 3.05805933 5.24994263 3.09361654 9.49978324 3.125 13.75 C 3.15013672 15.55984375 3.15013672 15.55984375 3.17578125 17.40625 C 3.18222656 18.56640625 3.18867187 19.7265625 3.1953125 20.921875 C 3.20578613 21.99018555 3.21625977 23.05849609 3.22705078 24.15917969 C 3.00161519 26.97979105 2.45848994 28.60787463 1 31 C -0.00990692 28.08666921 -1.00615952 25.16884681 -2 22.25 C -2.28617187 21.425 -2.57234375 20.6 -2.8671875 19.75 C -3.27324219 18.55117187 -3.27324219 18.55117187 -3.6875 17.328125 C -3.93886719 16.5949707 -4.19023438 15.86181641 -4.44921875 15.10644531 C -5 13 -5 13 -5 9 C -4.34 8.34 -3.68 7.68 -3 7 C -1.96157435 4.68351201 -0.9578025 2.35096976 0 0 Z" stroke-linecap="round" />
</g>
		<g transform="matrix(1 0 0 1 209.47 -14.08)"  >
<path style="stroke: none; stroke-width: 1; stroke-dasharray: none; stroke-linecap: butt; stroke-dashoffset: 0; stroke-linejoin: miter; stroke-miterlimit: 4; fill: rgb(234,54,54); fill-rule: nonzero; opacity: 1;" vector-effect="non-scaling-stroke"  transform=" translate(-0.5, -10.5)" d="M 0 0 C 6.06124079 0.31083286 10.36828875 3.32388391 15 7 C 15.33 7.66 15.66 8.32 16 9 C 14.02 9 12.04 9 10 9 C 9.896875 9.763125 9.79375 10.52625 9.6875 11.3125 C 8.94932885 14.19807812 8.37859197 15.26179817 6 17 C 5.01 17 4.02 17 3 17 C 3 17.99 3 18.98 3 20 C 2.01 20.33 1.02 20.66 0 21 C 1.8317757 16.28971963 1.8317757 16.28971963 3.125 14.0625 C 4.29033839 11.31563094 4.13409042 8.94998931 4 6 C -0.66092533 3.21205621 -4.83923046 3.9495041 -10 5 C -13.015076 6.38430482 -13.015076 6.38430482 -15 8 C -15 7.01 -15 6.02 -15 5 C -9.8531808 1.83272665 -5.841744 1.64949536 0 2 C 0 1.34 0 0.68 0 0 Z" stroke-linecap="round" />
</g>
		<g transform="matrix(1 0 0 1 -228.34 5.33)"  >
<path style="stroke: none; stroke-width: 1; stroke-dasharray: none; stroke-linecap: butt; stroke-dashoffset: 0; stroke-linejoin: miter; stroke-miterlimit: 4; fill: rgb(216,60,60); fill-rule: nonzero; opacity: 1;" vector-effect="non-scaling-stroke"  transform=" translate(-5.69, -56.91)" d="M 0 0 C 0.66 0 1.32 0 2 0 C 2.33 0.99 2.66 1.98 3 3 C 4.83574993 3.9454294 4.83574993 3.9454294 7 4.5625 C 9.1875 5.25390625 9.1875 5.25390625 11 6 C 12.15167238 8.30334476 12.13044559 9.61295749 12.14044189 12.17529297 C 12.14900711 13.48768951 12.14900711 13.48768951 12.15774536 14.82659912 C 12.15886322 15.78874329 12.15998108 16.75088745 12.16113281 17.7421875 C 12.16609772 18.75363831 12.17106262 19.76508911 12.17617798 20.80718994 C 12.19081986 24.16313346 12.19760405 27.51902975 12.203125 30.875 C 12.20887361 33.19905601 12.21463137 35.523112 12.22039795 37.84716797 C 12.23091291 42.72298403 12.23675272 47.59878357 12.24023438 52.47460938 C 12.24572822 58.73637209 12.26977327 64.99791836 12.29820633 71.25961304 C 12.31678411 76.06014657 12.32203565 80.86062739 12.32357025 85.66119385 C 12.32660698 87.97057278 12.33466953 90.27995058 12.34775543 92.58929443 C 12.36471872 95.81230404 12.3629598 99.03477698 12.35644531 102.2578125 C 12.3656601 103.21995667 12.37487488 104.18210083 12.3843689 105.17340088 C 12.37879974 106.04833191 12.37323059 106.92326294 12.36749268 107.82470703 C 12.36895924 108.58719757 12.3704258 109.34968811 12.3719368 110.13528442 C 12.24919765 110.75064056 12.12645851 111.3659967 12 112 C 9 114 9 114 6.8125 113.625 C 6.214375 113.41875 5.61625 113.2125 5 113 C 7.475 112.01 7.475 112.01 10 111 C 10 77.34 10 43.68 10 9 C 6.37 7.35 2.74 5.7 -1 4 C -0.67 2.68 -0.34 1.36 0 0 Z" stroke-linecap="round" />
</g>
		<g transform="matrix(1 0 0 1 63.97 5.42)"  >
<path style="stroke: none; stroke-width: 1; stroke-dasharray: none; stroke-linecap: butt; stroke-dashoffset: 0; stroke-linejoin: miter; stroke-miterlimit: 4; fill: rgb(202,67,66); fill-rule: nonzero; opacity: 1;" vector-effect="non-scaling-stroke"  transform=" translate(-17, -31)" d="M 0 0 C 10.89 0 21.78 0 33 0 C 33.66 1.32 34.32 2.64 35 4 C 33.68 4 32.36 4 31 4 C 30.67 3.34 30.34 2.68 30 2 C 21.42 2 12.84 2 4 2 C 4 2.99 4 3.98 4 5 C 5.32 5.33 6.64 5.66 8 6 C 8 24.48 8 42.96 8 62 C 7.67 62 7.34 62 7 62 C 7.0030162 61.33458694 7.00603241 60.66917389 7.00914001 59.9835968 C 7.03370646 53.05633988 7.00961011 46.13046312 6.95727539 39.20336914 C 6.94413746 36.61844151 6.94339959 34.03341985 6.95532227 31.44848633 C 6.97031243 27.73163986 6.94068383 24.01741297 6.90234375 20.30078125 C 6.91659897 19.14540359 6.93085419 17.99002594 6.94554138 16.79963684 C 7.01191622 11.01670583 7.01191622 11.01670583 4.38162231 6.12850952 C 2.27831215 4.53437177 2.27831215 4.53437177 -1 3 C -0.67 2.01 -0.34 1.02 0 0 Z" stroke-linecap="round" />
</g>
		<g transform="matrix(1 0 0 1 123.97 59.99)"  >
<path style="stroke: none; stroke-width: 1; stroke-dasharray: none; stroke-linecap: butt; stroke-dashoffset: 0; stroke-linejoin: miter; stroke-miterlimit: 4; fill: rgb(219,58,55); fill-rule: nonzero; opacity: 1;" vector-effect="non-scaling-stroke"  transform=" translate(2, -7.57)" d="M 0 0 C 0.33 0 0.66 0 1 0 C 1.10824843 1.6026782 1.18570645 3.20745748 1.25 4.8125 C 1.29640625 5.70582031 1.3428125 6.59914063 1.390625 7.51953125 C 1 10 1 10 -3 13 C 0.63 13 4.26 13 8 13 C 8 12.01 8 11.02 8 10 C 13.445 9.01 13.445 9.01 19 8 C 13.41244022 13.58755978 6.56796059 15.12276572 -1.125 15.1328125 C -2.55585938 15.13474609 -2.55585938 15.13474609 -4.015625 15.13671875 C -5.00046875 15.13285156 -5.9853125 15.12898438 -7 15.125 C -7.98484375 15.12886719 -8.9696875 15.13273437 -9.984375 15.13671875 C -10.93828125 15.13542969 -11.8921875 15.13414062 -12.875 15.1328125 C -13.73867188 15.13168457 -14.60234375 15.13055664 -15.4921875 15.12939453 C -18.0797817 14.99588354 -20.4754608 14.5694917 -23 14 C -23 13.67 -23 13.34 -23 13 C -22.21753906 12.93941406 -21.43507813 12.87882812 -20.62890625 12.81640625 C -19.61699219 12.73261719 -18.60507812 12.64882813 -17.5625 12.5625 C -16.55316406 12.48128906 -15.54382813 12.40007812 -14.50390625 12.31640625 C -12.06359221 12.26788532 -12.06359221 12.26788532 -11 11 C -8.68182911 10.67902249 -6.36220643 10.48779044 -4.03125 10.28125 C -2.00819407 10.20934163 -2.00819407 10.20934163 -1 9 C -0.76807135 7.48530552 -0.58784762 5.96245438 -0.4375 4.4375 C -0.35371094 3.61121094 -0.26992188 2.78492188 -0.18359375 1.93359375 C -0.09271484 0.97646484 -0.09271484 0.97646484 0 0 Z" stroke-linecap="round" />
</g>
		<g transform="matrix(1 0 0 1 -171.92 13.82)"  >
<path style="stroke: none; stroke-width: 1; stroke-dasharray: none; stroke-linecap: butt; stroke-dashoffset: 0; stroke-linejoin: miter; stroke-miterlimit: 4; fill: rgb(212,55,56); fill-rule: nonzero; opacity: 1;" vector-effect="non-scaling-stroke"  transform=" translate(-6.11, -21.4)" d="M 0 0 C 6.24 -0.36 6.24 -0.36 9.375 1.125 C 13.00890159 5.31796337 12.13596108 11.73378403 12.09765625 17.0234375 C 12.0962413 17.76961334 12.09482635 18.51578918 12.09336853 19.28457642 C 12.08780874 21.64809318 12.07526389 24.01151227 12.0625 26.375 C 12.0574798 27.98567571 12.0529178 29.59635291 12.04882812 31.20703125 C 12.03785251 35.13805799 12.02061596 39.06901248 12 43 C 10.68 43 9.36 43 8 43 C 8.16371094 42.01 8.32742187 41.02 8.49609375 40 C 9.36617368 33.03936057 9.1046041 26.00199124 9.0625 19 C 9.05747576 17.54297029 9.05291449 16.0859389 9.04882812 14.62890625 C 9.03789388 11.0859023 9.02068 7.54296203 9 4 C 6.03 3.01 3.06 2.02 0 1 C 0 0.67 0 0.34 0 0 Z" stroke-linecap="round" />
</g>
		<g transform="matrix(1 0 0 1 -156.03 -20.08)"  >
<path style="stroke: none; stroke-width: 1; stroke-dasharray: none; stroke-linecap: butt; stroke-dashoffset: 0; stroke-linejoin: miter; stroke-miterlimit: 4; fill: rgb(220,60,59); fill-rule: nonzero; opacity: 1;" vector-effect="non-scaling-stroke"  transform=" translate(3, -9.5)" d="M 0 0 C 0.33 0 0.66 0 1 0 C 1 6.27 1 12.54 1 19 C -0.65 19 -2.3 19 -4 19 C -4.50286934 17.0424015 -5.0022099 15.08389623 -5.5 13.125 C -5.7784375 12.03445312 -6.056875 10.94390625 -6.34375 9.8203125 C -7 7 -7 7 -7 5 C -6.34 5 -5.68 5 -5 5 C -4.71125 5.969375 -4.4225 6.93875 -4.125 7.9375 C -3.35785318 11.10664203 -3.35785318 11.10664203 -1 12 C -1.01160156 11.21753906 -1.02320312 10.43507812 -1.03515625 9.62890625 C -1.04417969 8.61699219 -1.05320312 7.60507813 -1.0625 6.5625 C -1.07410156 5.55316406 -1.08570312 4.54382813 -1.09765625 3.50390625 C -1 1 -1 1 0 0 Z" stroke-linecap="round" />
</g>
		<g transform="matrix(1 0 0 1 -208.53 65.92)"  >
<path style="stroke: none; stroke-width: 1; stroke-dasharray: none; stroke-linecap: butt; stroke-dashoffset: 0; stroke-linejoin: miter; stroke-miterlimit: 4; fill: rgb(207,60,60); fill-rule: nonzero; opacity: 1;" vector-effect="non-scaling-stroke"  transform=" translate(-22.5, -2.5)" d="M 0 0 C 0 0.99 0 1.98 0 3 C 23.265 3.495 23.265 3.495 47 4 C 46.505 2.02 46.505 2.02 46 0 C 46.99 0.66 47.98 1.32 49 2 C 48.67 2.99 48.34 3.98 48 5 C 31.17 5 14.34 5 -3 5 C -3.33 3.68 -3.66 2.36 -4 1 C -2 0 -2 0 0 0 Z" stroke-linecap="round" />
</g>
		<g transform="matrix(1 0 0 1 -51.53 57.02)"  >
<path style="stroke: none; stroke-width: 1; stroke-dasharray: none; stroke-linecap: butt; stroke-dashoffset: 0; stroke-linejoin: miter; stroke-miterlimit: 4; fill: rgb(223,56,56); fill-rule: nonzero; opacity: 1;" vector-effect="non-scaling-stroke"  transform=" translate(6.75, -4.73)" d="M 0 0 C 0.57878906 0.37382812 1.15757812 0.74765625 1.75390625 1.1328125 C -1.67971277 4.76840911 -5.04345445 7.49394596 -9.24609375 10.1328125 C -9.24609375 9.4728125 -9.24609375 8.8128125 -9.24609375 8.1328125 C -11.22609375 8.1328125 -13.20609375 8.1328125 -15.24609375 8.1328125 C -12.33760611 5.67877606 -9.32594089 3.40165681 -6.18359375 1.2578125 C -5.20712891 0.58105469 -5.20712891 0.58105469 -4.2109375 -0.109375 C -2.24609375 -0.8671875 -2.24609375 -0.8671875 0 0 Z" stroke-linecap="round" />
</g>
		<g transform="matrix(1 0 0 1 -6.47 -49.03)"  >
<path style="stroke: none; stroke-width: 1; stroke-dasharray: none; stroke-linecap: butt; stroke-dashoffset: 0; stroke-linejoin: miter; stroke-miterlimit: 4; fill: rgb(202,59,61); fill-rule: nonzero; opacity: 1;" vector-effect="non-scaling-stroke"  transform=" translate(8.44, -17.55)" d="M 0 0 C 1 1 1 1 1.11352539 4.32641602 C 1.11336629 5.80225556 1.10767314 7.27810069 1.09765625 8.75390625 C 1.0962413 9.52935287 1.09482635 10.3047995 1.09336853 11.10374451 C 1.08775345 13.59003494 1.07519846 16.0762366 1.0625 18.5625 C 1.05748694 20.24413933 1.0529237 21.92578006 1.04882812 23.60742188 C 1.03777913 27.73831566 1.02050445 31.86914276 1 36 C 0.01 36 -0.98 36 -2 36 C -2 35.01 -2 34.02 -2 33 C -1.34 33.33 -0.68 33.66 0 34 C 0 23.44 0 12.88 0 2 C -5.94 2 -11.88 2 -18 2 C -12.36165838 -1.75889441 -6.43665814 -1.21957733 0 0 Z" stroke-linecap="round" />
</g>
		<g transform="matrix(1 0 0 1 -90.53 -37.08)"  >
<path style="stroke: none; stroke-width: 1; stroke-dasharray: none; stroke-linecap: butt; stroke-dashoffset: 0; stroke-linejoin: miter; stroke-miterlimit: 4; fill: rgb(226,63,63); fill-rule: nonzero; opacity: 1;" vector-effect="non-scaling-stroke"  transform=" translate(-5.5, -11.5)" d="M 0 0 C 3.96 0 7.92 0 12 0 C 11.01 0.33 10.02 0.66 9 1 C 9 1.66 9 2.32 9 3 C 8.34 3 7.68 3 7 3 C 7.16298584 3.57975586 7.32597168 4.15951172 7.49389648 4.75683594 C 8.27677556 8.22673123 8.10312359 11.712623 8.0625 15.25 C 8.05798828 15.99507812 8.05347656 16.74015625 8.04882812 17.5078125 C 8.03709246 19.3385764 8.0191585 21.16929873 8 23 C 7.67 23 7.34 23 7 23 C 7.00902344 21.97519531 7.01804688 20.95039063 7.02734375 19.89453125 C 7.19059962 12.46017033 7.19059962 12.46017033 4.375 5.890625 C 2.27483064 4.36868421 2.27483064 4.36868421 -1 3 C -0.67 2.01 -0.34 1.02 0 0 Z" stroke-linecap="round" />
</g>
		<g transform="matrix(1 0 0 1 72.47 64.5)"  >
<path style="stroke: none; stroke-width: 1; stroke-dasharray: none; stroke-linecap: butt; stroke-dashoffset: 0; stroke-linejoin: miter; stroke-miterlimit: 4; fill: rgb(224,58,58); fill-rule: nonzero; opacity: 1;" vector-effect="non-scaling-stroke"  transform=" translate(11.5, -4.08)" d="M 0 0 C 3 1.8125 3 1.8125 6 4 C 6 4.99 6 5.98 6 7 C 2.98786971 8.50606515 -0.11282622 8.12160331 -3.4140625 8.09765625 C -4.14370209 8.0962413 -4.87334167 8.09482635 -5.62509155 8.09336853 C -7.95843585 8.08776531 -10.29168464 8.07521235 -12.625 8.0625 C -14.20572778 8.05748541 -15.78645707 8.05292243 -17.3671875 8.04882812 C -21.24482854 8.03779484 -25.12239807 8.02052811 -29 8 C -29 7.67 -29 7.34 -29 7 C -16.625 6.505 -16.625 6.505 -4 6 C -3.67 5.34 -3.34 4.68 -3 4 C -2.01 3.67 -1.02 3.34 0 3 C 0 2.01 0 1.02 0 0 Z" stroke-linecap="round" />
</g>
		<g transform="matrix(1 0 0 1 -33.53 -42.58)"  >
<path style="stroke: none; stroke-width: 1; stroke-dasharray: none; stroke-linecap: butt; stroke-dashoffset: 0; stroke-linejoin: miter; stroke-miterlimit: 4; fill: rgb(214,62,60); fill-rule: nonzero; opacity: 1;" vector-effect="non-scaling-stroke"  transform=" translate(5.5, -13)" d="M 0 0 C -0.64505596 3.48330216 -1.98217268 6.09432866 -4 9 C -4.66 9 -5.32 9 -6 9 C -6.66 13.62 -7.32 18.24 -8 23 C -8.66 23 -9.32 23 -10 23 C -9.67 23.99 -9.34 24.98 -9 26 C -9.66 26 -10.32 26 -11 26 C -10.71999961 19.54599107 -8.91321158 0 0 0 Z" stroke-linecap="round" />
</g>
		<g transform="matrix(1 0 0 1 225.47 45.92)"  >
<path style="stroke: none; stroke-width: 1; stroke-dasharray: none; stroke-linecap: butt; stroke-dashoffset: 0; stroke-linejoin: miter; stroke-miterlimit: 4; fill: rgb(219,60,63); fill-rule: nonzero; opacity: 1;" vector-effect="non-scaling-stroke"  transform=" translate(1.5, -8.5)" d="M 0 0 C 0.99 0.33 1.98 0.66 3 1 C 1.26017005 6.81261371 -0.8110489 11.83169994 -4 17 C -5.25541557 13.23375329 -4.37061958 11.62811066 -3 8 C -3.99 7.34 -4.98 6.68 -6 6 C -4.02 4.02 -2.04 2.04 0 0 Z" stroke-linecap="round" />
</g>
		<g transform="matrix(1 0 0 1 -157 -25.58)"  >
<path style="stroke: none; stroke-width: 1; stroke-dasharray: none; stroke-linecap: butt; stroke-dashoffset: 0; stroke-linejoin: miter; stroke-miterlimit: 4; fill: rgb(252,49,47); fill-rule: nonzero; opacity: 1;" vector-effect="non-scaling-stroke"  transform=" translate(-0.04, -8)" d="M 0 0 C 0.309375 0.639375 0.61875 1.27875 0.9375 1.9375 C 1.8345163 3.93610821 1.8345163 3.93610821 3 5 C 3.07226502 6.85287502 3.0838122 8.70833878 3.0625 10.5625 C 3.05347656 11.57441406 3.04445313 12.58632812 3.03515625 13.62890625 C 3.02355469 14.41136719 3.01195313 15.19382813 3 16 C 2.01 15.67 1.02 15.34 0 15 C -0.33 13.02 -0.66 11.04 -1 9 C -1.66 9 -2.32 9 -3 9 C -2.44271087 5.65626525 -1.64826111 2.96687001 0 0 Z" stroke-linecap="round" />
</g>
		<g transform="matrix(1 0 0 1 144.47 -0.08)"  >
<path style="stroke: none; stroke-width: 1; stroke-dasharray: none; stroke-linecap: butt; stroke-dashoffset: 0; stroke-linejoin: miter; stroke-miterlimit: 4; fill: rgb(222,56,55); fill-rule: nonzero; opacity: 1;" vector-effect="non-scaling-stroke"  transform=" translate(3.5, -7.5)" d="M 0 0 C 0.66 0 1.32 0 2 0 C -0.89066059 10.55808656 -0.89066059 10.55808656 -4 15 C -5.9375 14.25 -5.9375 14.25 -8 13 C -8.75 10.875 -8.75 10.875 -9 9 C -7.68 8.34 -6.36 7.68 -5 7 C -4.01 7.66 -3.02 8.32 -2 9 C -2 7.35 -2 5.7 -2 4 C -1.34 4 -0.68 4 0 4 C 0 2.68 0 1.36 0 0 Z" stroke-linecap="round" />
</g>
		<g transform="matrix(1 0 0 1 192.47 -24.61)"  >
<path style="stroke: none; stroke-width: 1; stroke-dasharray: none; stroke-linecap: butt; stroke-dashoffset: 0; stroke-linejoin: miter; stroke-miterlimit: 4; fill: rgb(218,59,58); fill-rule: nonzero; opacity: 1;" vector-effect="non-scaling-stroke"  transform=" translate(-0.95, -2.06)" d="M 0 0 C 0.84433594 0.00322266 1.68867188 0.00644531 2.55859375 0.00976562 C 3.86763672 0.02233398 3.86763672 0.02233398 5.203125 0.03515625 C 6.09128906 0.03966797 6.97945313 0.04417969 7.89453125 0.04882812 C 10.08079829 0.06058225 12.26692679 0.07701376 14.453125 0.09765625 C 10.87144147 2.48544527 8.04244858 2.49911106 3.890625 2.66015625 C -0.97673149 2.70345805 -0.97673149 2.70345805 -5.546875 4.09765625 C -7.8798616 4.13788016 -10.21394166 4.14085872 -12.546875 4.09765625 C -8.43167852 0.71731628 -5.26252577 -0.03555761 0 0 Z" stroke-linecap="round" />
</g>
		<g transform="matrix(1 0 0 1 126.97 64.04)"  >
<path style="stroke: none; stroke-width: 1; stroke-dasharray: none; stroke-linecap: butt; stroke-dashoffset: 0; stroke-linejoin: miter; stroke-miterlimit: 4; fill: rgb(211,62,63); fill-rule: nonzero; opacity: 1;" vector-effect="non-scaling-stroke"  transform=" translate(18, -2.62)" d="M 0 0 C -1.55851755 0.82011312 -3.12201716 1.63076213 -4.6875 2.4375 C -5.55761719 2.88996094 -6.42773438 3.34242188 -7.32421875 3.80859375 C -11.55432081 5.69206985 -15.4820163 6.1258772 -20.08203125 6.09765625 C -21.01337891 6.09443359 -21.94472656 6.09121094 -22.90429688 6.08789062 C -23.86400391 6.07951172 -24.82371094 6.07113281 -25.8125 6.0625 C -27.28106445 6.05573242 -27.28106445 6.05573242 -28.77929688 6.04882812 C -31.18626111 6.03708684 -33.59309857 6.02066419 -36 6 C -36 5.67 -36 5.34 -36 5 C -23.625 4.505 -23.625 4.505 -11 4 C -11 3.01 -11 2.02 -11 1 C -9.5437328 0.63743142 -8.08488815 0.28520207 -6.625 -0.0625 C -5.81289063 -0.25972656 -5.00078125 -0.45695312 -4.1640625 -0.66015625 C -2 -1 -2 -1 0 0 Z" stroke-linecap="round" />
</g>
		<g transform="matrix(1 0 0 1 105.97 -19.09)"  >
<path style="stroke: none; stroke-width: 1; stroke-dasharray: none; stroke-linecap: butt; stroke-dashoffset: 0; stroke-linejoin: miter; stroke-miterlimit: 4; fill: rgb(235,52,51); fill-rule: nonzero; opacity: 1;" vector-effect="non-scaling-stroke"  transform=" translate(11, -5.49)" d="M 0 0 C -2.65945714 1.77297142 -4.995958 2.93068972 -7.9375 4.125 C -8.79214844 4.47820312 -9.64679688 4.83140625 -10.52734375 5.1953125 C -13 6 -13 6 -17 6 C -16.67 7.65 -16.34 9.3 -16 11 C -19 11 -19 11 -20.6875 9.5 C -21.120625 9.005 -21.55375 8.51 -22 8 C -15.38997497 2.68324074 -8.60697697 -0.29098321 0 0 Z" stroke-linecap="round" />
</g>
		<g transform="matrix(1 0 0 1 -21.53 65.98)"  >
<path style="stroke: none; stroke-width: 1; stroke-dasharray: none; stroke-linecap: butt; stroke-dashoffset: 0; stroke-linejoin: miter; stroke-miterlimit: 4; fill: rgb(211,48,49); fill-rule: nonzero; opacity: 1;" vector-effect="non-scaling-stroke"  transform=" translate(17.5, -2.56)" d="M 0 0 C 0.66 0.33 1.32 0.66 2 1 C 2 1.99 2 2.98 2 4 C -1.75848174 5.25282725 -5.25490919 5.12381835 -9.16796875 5.09765625 C -10.36018791 5.09553383 -10.36018791 5.09553383 -11.57649231 5.09336853 C -14.11353325 5.08777378 -16.65048575 5.07522228 -19.1875 5.0625 C -20.90820185 5.05748432 -22.62890508 5.05292153 -24.34960938 5.04882812 C -28.5664403 5.03780607 -32.78320516 5.02054506 -37 5 C -37 4.67 -37 4.34 -37 4 C -25.78 4 -14.56 4 -3 4 C -3 3.01 -3 2.02 -3 1 C -2.01 0.67 -1.02 0.34 0 0 Z" stroke-linecap="round" />
</g>
		<g transform="matrix(1 0 0 1 107.95 55.42)"  >
<path style="stroke: none; stroke-width: 1; stroke-dasharray: none; stroke-linecap: butt; stroke-dashoffset: 0; stroke-linejoin: miter; stroke-miterlimit: 4; fill: rgb(227,56,54); fill-rule: nonzero; opacity: 1;" vector-effect="non-scaling-stroke"  transform=" translate(-5.98, -9)" d="M 0 0 C 2.18469601 2.18469601 3.02654889 4.0185932 4.3125 6.8125 C 6.38672 11.07823221 8.41425929 13.92650796 12 17 C 10.35 17.33 8.7 17.66 7 18 C 6.34 16.68 5.68 15.36 5 14 C 4.01 14 3.02 14 2 14 C 1.77213542 11.94921875 1.54427083 9.8984375 1.31640625 7.84765625 C 1.18113386 5.98859771 1.18113386 5.98859771 0 5 C -0.04063832 3.33382885 -0.042721 1.66611905 0 0 Z" stroke-linecap="round" />
</g>
		<g transform="matrix(1 0 0 1 -41.53 64.39)"  >
<path style="stroke: none; stroke-width: 1; stroke-dasharray: none; stroke-linecap: butt; stroke-dashoffset: 0; stroke-linejoin: miter; stroke-miterlimit: 4; fill: rgb(247,44,47); fill-rule: nonzero; opacity: 1;" vector-effect="non-scaling-stroke"  transform=" translate(4.5, -3.97)" d="M 0 0 C -0.33 0.639375 -0.66 1.27875 -1 1.9375 C -2.07271225 3.76794567 -2.07271225 3.76794567 -2 5 C -1.01 5 -0.02 5 1 5 C 1 5.66 1 6.32 1 7 C -0.258125 7.185625 -1.51625 7.37125 -2.8125 7.5625 C -3.87404297 7.71912109 -3.87404297 7.71912109 -4.95703125 7.87890625 C -7 8 -7 8 -10 7 C -9.8125 5.1875 -9.8125 5.1875 -9 3 C -5.65188866 0.46629412 -4.29875783 0 0 0 Z" stroke-linecap="round" />
</g>
		<g transform="matrix(1 0 0 1 -13.53 -59.14)"  >
<path style="stroke: none; stroke-width: 1; stroke-dasharray: none; stroke-linecap: butt; stroke-dashoffset: 0; stroke-linejoin: miter; stroke-miterlimit: 4; fill: rgb(233,55,55); fill-rule: nonzero; opacity: 1;" vector-effect="non-scaling-stroke"  transform=" translate(6.5, -6.44)" d="M 0 0 C -0.99773437 0.58201172 -0.99773437 0.58201172 -2.015625 1.17578125 C -4.27402528 2.83228781 -4.27402528 2.83228781 -4.171875 5.48046875 C -4.03265625 6.37378906 -3.8934375 7.26710937 -3.75 8.1875 C -3.62109375 9.08855469 -3.4921875 9.98960937 -3.359375 10.91796875 C -3.24078125 11.60503906 -3.1221875 12.29210937 -3 13 C -4.74271938 10.702779 -6.39911152 8.40133271 -8 6 C -8.99 5.67 -9.98 5.34 -11 5 C -11 4.34 -11 3.68 -11 3 C -11.66 2.67 -12.32 2.34 -13 2 C -4.57142857 -0.28571429 -4.57142857 -0.28571429 0 0 Z" stroke-linecap="round" />
</g>
		<g transform="matrix(1 0 0 1 117.97 42.42)"  >
<path style="stroke: none; stroke-width: 1; stroke-dasharray: none; stroke-linecap: butt; stroke-dashoffset: 0; stroke-linejoin: miter; stroke-miterlimit: 4; fill: rgb(221,61,63); fill-rule: nonzero; opacity: 1;" vector-effect="non-scaling-stroke"  transform=" translate(-8, -10)" d="M 0 0 C 2.46800047 1.15173355 4.04783565 2.04783565 6 4 C 6.845625 4.28875 7.69125 4.5775 8.5625 4.875 C 11 6 11 6 11.6875 7.8125 C 11.8421875 8.8953125 11.8421875 8.8953125 12 10 C 12.6469365 11.6744239 13.30959426 13.34302621 14 15 C 14.66 15 15.32 15 16 15 C 16 16.65 16 18.3 16 20 C 14.5282348 18.04774675 13.06597524 16.09194825 11.640625 14.10546875 C 8.51455982 9.7939575 5.18164057 6.0167537 1.3203125 2.34765625 C 0 1 0 1 0 0 Z" stroke-linecap="round" />
</g>
		<g transform="matrix(1 0 0 1 -191.03 5.42)"  >
<path style="stroke: none; stroke-width: 1; stroke-dasharray: none; stroke-linecap: butt; stroke-dashoffset: 0; stroke-linejoin: miter; stroke-miterlimit: 4; fill: rgb(224,53,55); fill-rule: nonzero; opacity: 1;" vector-effect="non-scaling-stroke"  transform=" translate(2, -6)" d="M 0 0 C 0.93423645 3.01031744 1.04449911 3.86650268 0 7 C 0.99 7.66 1.98 8.32 3 9 C 1.02 9.99 -0.96 10.98 -3 12 C -3 10.68 -3 9.36 -3 8 C -4.32 7.67 -5.64 7.34 -7 7 C -7 5.35 -7 3.7 -7 2 C -6.01 2.99 -5.02 3.98 -4 5 C -2.68 3.35 -1.36 1.7 0 0 Z" stroke-linecap="round" />
</g>
		<g transform="matrix(1 0 0 1 44.97 58.86)"  >
<path style="stroke: none; stroke-width: 1; stroke-dasharray: none; stroke-linecap: butt; stroke-dashoffset: 0; stroke-linejoin: miter; stroke-miterlimit: 4; fill: rgb(218,59,59); fill-rule: nonzero; opacity: 1;" vector-effect="non-scaling-stroke"  transform=" translate(4.63, -3.56)" d="M 0 0 C 1.670625 0.061875 1.670625 0.061875 3.375 0.125 C 0.79715154 2.77252004 -1.54148098 5.06932065 -4.625 7.125 C -4.625 6.465 -4.625 5.805 -4.625 5.125 C -7.265 5.455 -9.905 5.785 -12.625 6.125 C -12.625 5.465 -12.625 4.805 -12.625 4.125 C -11.51125 3.83625 -10.3975 3.5475 -9.25 3.25 C -5.08241492 1.95661153 -4.37228229 0.15076835 0 0 Z" stroke-linecap="round" />
</g>
		<g transform="matrix(1 0 0 1 -8.03 -21.08)"  >
<path style="stroke: none; stroke-width: 1; stroke-dasharray: none; stroke-linecap: butt; stroke-dashoffset: 0; stroke-linejoin: miter; stroke-miterlimit: 4; fill: rgb(241,55,58); fill-rule: nonzero; opacity: 1;" vector-effect="non-scaling-stroke"  transform=" translate(-5, -5.5)" d="M 0 0 C 3.3 0 6.6 0 10 0 C 9.67 1.32 9.34 2.64 9 4 C 7.35 4 5.7 4 4 4 C 3.67 6.31 3.34 8.62 3 11 C 2.34 10.67 1.68 10.34 1 10 C 1.03255208 7.98177083 1.06510417 5.96354167 1.09765625 3.9453125 C 1.12649242 1.91814596 1.12649242 1.91814596 0 0 Z" stroke-linecap="round" />
</g>
		<g transform="matrix(1 0 0 1 -189.53 64.42)"  >
<path style="stroke: none; stroke-width: 1; stroke-dasharray: none; stroke-linecap: butt; stroke-dashoffset: 0; stroke-linejoin: miter; stroke-miterlimit: 4; fill: rgb(246,47,47); fill-rule: nonzero; opacity: 1;" vector-effect="non-scaling-stroke"  transform=" translate(-4.5, -3)" d="M 0 0 C 2.69082872 0.17635452 5.32851446 0.61835921 8 1 C 8.66 2.65 9.32 4.3 10 6 C 7.69 6 5.38 6 3 6 C 2.67 5.01 2.34 4.02 2 3 C 1.01 2.34 0.02 1.68 -1 1 C -0.67 0.67 -0.34 0.34 0 0 Z" stroke-linecap="round" />
</g>
		<g transform="matrix(1 0 0 1 204.47 -20.58)"  >
<path style="stroke: none; stroke-width: 1; stroke-dasharray: none; stroke-linecap: butt; stroke-dashoffset: 0; stroke-linejoin: miter; stroke-miterlimit: 4; fill: rgb(216,55,53); fill-rule: nonzero; opacity: 1;" vector-effect="non-scaling-stroke"  transform=" translate(4.5, -4)" d="M 0 0 C 2.97 0.495 2.97 0.495 6 1 C 4.68 1.33 3.36 1.66 2 2 C 2 2.66 2 3.32 2 4 C 0.2365625 3.9071875 0.2365625 3.9071875 -1.5625 3.8125 C -6.06254792 3.79651404 -8.99862805 4.99931403 -13 7 C -13.99 7.495 -13.99 7.495 -15 8 C -15 7.01 -15 6.02 -15 5 C -9.8531808 1.83272665 -5.841744 1.64949536 0 2 C 0 1.34 0 0.68 0 0 Z" stroke-linecap="round" />
</g>
		<g transform="matrix(1 0 0 1 156.42 8.42)"  >
<path style="stroke: none; stroke-width: 1; stroke-dasharray: none; stroke-linecap: butt; stroke-dashoffset: 0; stroke-linejoin: miter; stroke-miterlimit: 4; fill: rgb(214,61,60); fill-rule: nonzero; opacity: 1;" vector-effect="non-scaling-stroke"  transform=" translate(0.55, -10)" d="M 0 0 C 0.33 0 0.66 0 1 0 C 1.33 1.98 1.66 3.96 2 6 C 1.01 6.33 0.02 6.66 -1 7 C -1 11.29 -1 15.58 -1 20 C -1.66 20 -2.32 20 -3 20 C -3.41640288 12.7515055 -2.44166784 6.83085645 0 0 Z" stroke-linecap="round" />
</g>
		<g transform="matrix(1 0 0 1 208.47 62.78)"  >
<path style="stroke: none; stroke-width: 1; stroke-dasharray: none; stroke-linecap: butt; stroke-dashoffset: 0; stroke-linejoin: miter; stroke-miterlimit: 4; fill: rgb(220,59,60); fill-rule: nonzero; opacity: 1;" vector-effect="non-scaling-stroke"  transform=" translate(5.5, -4.36)" d="M 0 0 C 0.66 0 1.32 0 2 0 C 2 0.99 2 1.98 2 3 C 0.06891037 4.03290841 -1.870118 5.05098672 -3.8125 6.0625 C -4.89144531 6.63097656 -5.97039062 7.19945312 -7.08203125 7.78515625 C -10 9 -10 9 -13 8 C -11.35 7.67 -9.7 7.34 -8 7 C -8 6.34 -8 5.68 -8 5 C -6.68 5 -5.36 5 -4 5 C -4 4.01 -4 3.02 -4 2 C -2.68 2 -1.36 2 0 2 C 0 1.34 0 0.68 0 0 Z" stroke-linecap="round" />
</g>
		<g transform="matrix(1 0 0 1 218.11 55.42)"  >
<path style="stroke: none; stroke-width: 1; stroke-dasharray: none; stroke-linecap: butt; stroke-dashoffset: 0; stroke-linejoin: miter; stroke-miterlimit: 4; fill: rgb(237,54,55); fill-rule: nonzero; opacity: 1;" vector-effect="non-scaling-stroke"  transform=" translate(2.86, -5)" d="M 0 0 C 0.33 0 0.66 0 1 0 C 1.375 2.1875 1.375 2.1875 1 5 C -0.83961648 6.99022836 -2.79186148 8.38989899 -5 10 C -5 8.68 -5 7.36 -5 6 C -5.66 5.67 -6.32 5.34 -7 5 C -6.67 4.34 -6.34 3.68 -6 3 C -5.01 3 -4.02 3 -3 3 C -3 3.66 -3 4.32 -3 5 C -2.34 5 -1.68 5 -1 5 C -0.67 3.35 -0.34 1.7 0 0 Z" stroke-linecap="round" />
</g>
		<g transform="matrix(1 0 0 1 133.97 -20.58)"  >
<path style="stroke: none; stroke-width: 1; stroke-dasharray: none; stroke-linecap: butt; stroke-dashoffset: 0; stroke-linejoin: miter; stroke-miterlimit: 4; fill: rgb(252,46,45); fill-rule: nonzero; opacity: 1;" vector-effect="non-scaling-stroke"  transform=" translate(2, -4)" d="M 0 0 C 0.99 1.32 1.98 2.64 3 4 C 2.34 5.32 1.68 6.64 1 8 C 1 7.01 1 6.02 1 5 C -0.98 5 -2.96 5 -5 5 C -5.66 3.68 -6.32 2.36 -7 1 C -4.69 1.33 -2.38 1.66 0 2 C 0 1.34 0 0.68 0 0 Z" stroke-linecap="round" />
</g>
		<g transform="matrix(1 0 0 1 105.47 27.42)"  >
<path style="stroke: none; stroke-width: 1; stroke-dasharray: none; stroke-linecap: butt; stroke-dashoffset: 0; stroke-linejoin: miter; stroke-miterlimit: 4; fill: rgb(227,54,55); fill-rule: nonzero; opacity: 1;" vector-effect="non-scaling-stroke"  transform=" translate(-6.5, -5)" d="M 0 0 C 1.65 0 3.3 0 5 0 C 5.309375 1.175625 5.309375 1.175625 5.625 2.375 C 6.80676612 5.30916286 6.80676612 5.30916286 10.125 6.3125 C 11.07375 6.539375 12.0225 6.76625 13 7 C 12.01 7.495 12.01 7.495 11 8 C 10.67 8.66 10.34 9.32 10 10 C 8.33037631 8.52417192 6.6643694 7.04425109 5 5.5625 C 4.071875 4.73878906 3.14375 3.91507813 2.1875 3.06640625 C 1.465625 2.38449219 0.74375 1.70257813 0 1 C 0 0.67 0 0.34 0 0 Z" stroke-linecap="round" />
</g>
		<g transform="matrix(1 0 0 1 190.47 17.92)"  >
<path style="stroke: none; stroke-width: 1; stroke-dasharray: none; stroke-linecap: butt; stroke-dashoffset: 0; stroke-linejoin: miter; stroke-miterlimit: 4; fill: rgb(220,53,56); fill-rule: nonzero; opacity: 1;" vector-effect="non-scaling-stroke"  transform=" translate(4.5, -5.5)" d="M 0 0 C 0 4.26861765 -1.65525557 6.48288335 -4 10 C -4.99 9.67 -5.98 9.34 -7 9 C -7 9.66 -7 10.32 -7 11 C -7.66 11 -8.32 11 -9 11 C -7.59155282 7.78475695 -5.89655214 5.67816132 -3.375 3.25 C -2.74335938 2.63640625 -2.11171875 2.0228125 -1.4609375 1.390625 C -0.73777344 0.70226562 -0.73777344 0.70226562 0 0 Z" stroke-linecap="round" />
</g>
		<g transform="matrix(1 0 0 1 -227.03 65.92)"  >
<path style="stroke: none; stroke-width: 1; stroke-dasharray: none; stroke-linecap: butt; stroke-dashoffset: 0; stroke-linejoin: miter; stroke-miterlimit: 4; fill: rgb(215,54,54); fill-rule: nonzero; opacity: 1;" vector-effect="non-scaling-stroke"  transform=" translate(-4, -2.5)" d="M 0 0 C 0 0.99 0 1.98 0 3 C 3.96 3.33 7.92 3.66 12 4 C 12 4.33 12 4.66 12 5 C 7.05 5 2.1 5 -3 5 C -3.33 3.68 -3.66 2.36 -4 1 C -2 0 -2 0 0 0 Z" stroke-linecap="round" />
</g>
		<g transform="matrix(1 0 0 1 229.47 3.92)"  >
<path style="stroke: none; stroke-width: 1; stroke-dasharray: none; stroke-linecap: butt; stroke-dashoffset: 0; stroke-linejoin: miter; stroke-miterlimit: 4; fill: rgb(214,65,67); fill-rule: nonzero; opacity: 1;" vector-effect="non-scaling-stroke"  transform=" translate(3.5, -6.5)" d="M 0 0 C 0.33 0 0.66 0 1 0 C 1.75 2.75 1.75 2.75 2 6 C -0.75192101 10.01321814 -4.60676958 11.31029599 -9 13 C -8.67 12.01 -8.34 11.02 -8 10 C -7.01 10 -6.02 10 -5 10 C -5 9.34 -5 8.68 -5 8 C -3.35 7.67 -1.7 7.34 0 7 C 0 4.69 0 2.38 0 0 Z" stroke-linecap="round" />
</g>
		<g transform="matrix(1 0 0 1 147.47 -18.08)"  >
<path style="stroke: none; stroke-width: 1; stroke-dasharray: none; stroke-linecap: butt; stroke-dashoffset: 0; stroke-linejoin: miter; stroke-miterlimit: 4; fill: rgb(213,60,61); fill-rule: nonzero; opacity: 1;" vector-effect="non-scaling-stroke"  transform=" translate(-6.5, -4.5)" d="M 0 0 C 5.28137429 0.51525603 8.57221156 2.25477117 13 5 C 12.34 6.32 11.68 7.64 11 9 C 11 7.68 11 6.36 11 5 C 9.9275 4.9175 8.855 4.835 7.75 4.75 C 3.7261549 3.94523098 2.51830747 3.12270126 0 0 Z" stroke-linecap="round" />
</g>
		<g transform="matrix(1 0 0 1 15.97 63.04)"  >
<path style="stroke: none; stroke-width: 1; stroke-dasharray: none; stroke-linecap: butt; stroke-dashoffset: 0; stroke-linejoin: miter; stroke-miterlimit: 4; fill: rgb(232,55,57); fill-rule: nonzero; opacity: 1;" vector-effect="non-scaling-stroke"  transform=" translate(-5, -2.62)" d="M 0 0 C 1.98 0.66 3.96 1.32 6 2 C 6 1.34 6 0.68 6 0 C 6.66 0 7.32 0 8 0 C 8.66 1.65 9.32 3.3 10 5 C 7.25 5.3125 7.25 5.3125 4 5 C 1.625 2.5 1.625 2.5 0 0 Z" stroke-linecap="round" />
</g>
		<g transform="matrix(1 0 0 1 -31.03 -51.08)"  >
<path style="stroke: none; stroke-width: 1; stroke-dasharray: none; stroke-linecap: butt; stroke-dashoffset: 0; stroke-linejoin: miter; stroke-miterlimit: 4; fill: rgb(229,56,58); fill-rule: nonzero; opacity: 1;" vector-effect="non-scaling-stroke"  transform=" translate(3, -4.5)" d="M 0 0 C -0.64505596 3.48330216 -1.98217268 6.09432866 -4 9 C -4.66 9 -5.32 9 -6 9 C -5.38983051 3.50847458 -5.38983051 3.50847458 -3.5625 1.125 C -2 0 -2 0 0 0 Z" stroke-linecap="round" />
</g>
		<g transform="matrix(1 0 0 1 -92.03 -23.58)"  >
<path style="stroke: none; stroke-width: 1; stroke-dasharray: none; stroke-linecap: butt; stroke-dashoffset: 0; stroke-linejoin: miter; stroke-miterlimit: 4; fill: rgb(220,61,58); fill-rule: nonzero; opacity: 1;" vector-effect="non-scaling-stroke"  transform=" translate(-3, -2)" d="M 0 0 C 1.98 0 3.96 0 6 0 C 6 1.32 6 2.64 6 4 C 4.02 4 2.04 4 0 4 C 0 2.68 0 1.36 0 0 Z" stroke-linecap="round" />
</g>
		<g transform="matrix(1 0 0 1 -179.03 -47.08)"  >
<path style="stroke: none; stroke-width: 1; stroke-dasharray: none; stroke-linecap: butt; stroke-dashoffset: 0; stroke-linejoin: miter; stroke-miterlimit: 4; fill: rgb(240,53,56); fill-rule: nonzero; opacity: 1;" vector-effect="non-scaling-stroke"  transform=" translate(-8, -2.5)" d="M 0 0 C 4.29 0 8.58 0 13 0 C 13 0.66 13 1.32 13 2 C 13.99 2.33 14.98 2.66 16 3 C 15.67 3.66 15.34 4.32 15 5 C 13.0625 4.625 13.0625 4.625 11 4 C 10.67 3.34 10.34 2.68 10 2 C 7.64400765 1.53248212 7.64400765 1.53248212 4.9375 1.375 C 4.01839844 1.30023438 3.09929687 1.22546875 2.15234375 1.1484375 C 1.08693359 1.07496094 1.08693359 1.07496094 0 1 C 0 0.67 0 0.34 0 0 Z" stroke-linecap="round" />
</g>
		<g transform="matrix(1 0 0 1 200.47 6.42)"  >
<path style="stroke: none; stroke-width: 1; stroke-dasharray: none; stroke-linecap: butt; stroke-dashoffset: 0; stroke-linejoin: miter; stroke-miterlimit: 4; fill: rgb(211,59,55); fill-rule: nonzero; opacity: 1;" vector-effect="non-scaling-stroke"  transform=" translate(4.5, -6)" d="M 0 0 C 0 3.93235469 -1.54945341 5.02964049 -4 8 C -4.33 8.99 -4.66 9.98 -5 11 C -7.0625 11.6875 -7.0625 11.6875 -9 12 C -7.55575365 8.76138697 -5.74227753 6.38030837 -3.375 3.75 C -2.74335938 3.04359375 -2.11171875 2.3371875 -1.4609375 1.609375 C -0.97882813 1.07828125 -0.49671875 0.5471875 0 0 Z" stroke-linecap="round" />
</g>
		<g transform="matrix(1 0 0 1 51.47 -20.58)"  >
<path style="stroke: none; stroke-width: 1; stroke-dasharray: none; stroke-linecap: butt; stroke-dashoffset: 0; stroke-linejoin: miter; stroke-miterlimit: 4; fill: rgb(231,56,57); fill-rule: nonzero; opacity: 1;" vector-effect="non-scaling-stroke"  transform=" translate(-3.5, -4)" d="M 0 0 C 1.65 0 3.3 0 5 0 C 4.01 0.495 4.01 0.495 3 1 C 3 1.99 3 2.98 3 4 C 4.32 4.33 5.64 4.66 7 5 C 6.67 5.99 6.34 6.98 6 8 C 3 6.25 3 6.25 0 4 C 0 2.68 0 1.36 0 0 Z" stroke-linecap="round" />
</g>
		<g transform="matrix(1 0 0 1 109.97 -22.6)"  >
<path style="stroke: none; stroke-width: 1; stroke-dasharray: none; stroke-linecap: butt; stroke-dashoffset: 0; stroke-linejoin: miter; stroke-miterlimit: 4; fill: rgb(214,62,61); fill-rule: nonzero; opacity: 1;" vector-effect="non-scaling-stroke"  transform=" translate(7, -1.98)" d="M 0 0 C -5.05787568 3.37191712 -7.77909633 4.23926553 -14 4 C -10.28835785 0.28835785 -5.09745779 -0.30893684 0 0 Z" stroke-linecap="round" />
</g>
		<g transform="matrix(1 0 0 1 -44.03 64.92)"  >
<path style="stroke: none; stroke-width: 1; stroke-dasharray: none; stroke-linecap: butt; stroke-dashoffset: 0; stroke-linejoin: miter; stroke-miterlimit: 4; fill: rgb(219,55,57); fill-rule: nonzero; opacity: 1;" vector-effect="non-scaling-stroke"  transform=" translate(2, -3.5)" d="M 0 0 C 0.33 0.66 0.66 1.32 1 2 C 0.0625 4.625 0.0625 4.625 -1 7 C -2.32 6.67 -3.64 6.34 -5 6 C -4.75 4.125 -4.75 4.125 -4 2 C -1.9375 0.75 -1.9375 0.75 0 0 Z" stroke-linecap="round" />
</g>
		<g transform="matrix(1 0 0 1 90.97 58.92)"  >
<path style="stroke: none; stroke-width: 1; stroke-dasharray: none; stroke-linecap: butt; stroke-dashoffset: 0; stroke-linejoin: miter; stroke-miterlimit: 4; fill: rgb(208,66,65); fill-rule: nonzero; opacity: 1;" vector-effect="non-scaling-stroke"  transform=" translate(-2, -4.5)" d="M 0 0 C 0.33 0 0.66 0 1 0 C 1 2.31 1 4.62 1 7 C 2.65 7 4.3 7 6 7 C 6 7.66 6 8.32 6 9 C 0.25 8.125 0.25 8.125 -2 7 C -1.34 4.69 -0.68 2.38 0 0 Z" stroke-linecap="round" />
</g>
		<g transform="matrix(1 0 0 1 114.97 -9.08)"  >
<path style="stroke: none; stroke-width: 1; stroke-dasharray: none; stroke-linecap: butt; stroke-dashoffset: 0; stroke-linejoin: miter; stroke-miterlimit: 4; fill: rgb(222,61,56); fill-rule: nonzero; opacity: 1;" vector-effect="non-scaling-stroke"  transform=" translate(1, -4.5)" d="M 0 0 C 0.66 2.97 1.32 5.94 2 9 C 1.34 9 0.68 9 0 9 C -1.78305524 6.36107824 -2.99059621 4.02821137 -4 1 C -2 0 -2 0 0 0 Z" stroke-linecap="round" />
</g>
		<g transform="matrix(1 0 0 1 -138.53 -20.58)"  >
<path style="stroke: none; stroke-width: 1; stroke-dasharray: none; stroke-linecap: butt; stroke-dashoffset: 0; stroke-linejoin: miter; stroke-miterlimit: 4; fill: rgb(235,56,58); fill-rule: nonzero; opacity: 1;" vector-effect="non-scaling-stroke"  transform=" translate(-3.5, -4)" d="M 0 0 C 2 0 2 0 3.625 1.375 C 5 3 5 3 5 5 C 5.66 5.33 6.32 5.66 7 6 C 7 6.66 7 7.32 7 8 C 4.13792848 6.71700242 1.9754912 5.469364 0 3 C 0 2.01 0 1.02 0 0 Z" stroke-linecap="round" />
</g>
		<g transform="matrix(1 0 0 1 95.47 17.92)"  >
<path style="stroke: none; stroke-width: 1; stroke-dasharray: none; stroke-linecap: butt; stroke-dashoffset: 0; stroke-linejoin: miter; stroke-miterlimit: 4; fill: rgb(226,56,60); fill-rule: nonzero; opacity: 1;" vector-effect="non-scaling-stroke"  transform=" translate(-3.5, -4.5)" d="M 0 0 C 0.66 0 1.32 0 2 0 C 2 0.66 2 1.32 2 2 C 4.475 2.99 4.475 2.99 7 4 C 7 5.65 7 7.3 7 9 C 4.03595495 6.19195732 1.55500981 3.81684226 0 0 Z" stroke-linecap="round" />
</g>
		<g transform="matrix(1 0 0 1 -150.07 -44.08)"  >
<path style="stroke: none; stroke-width: 1; stroke-dasharray: none; stroke-linecap: butt; stroke-dashoffset: 0; stroke-linejoin: miter; stroke-miterlimit: 4; fill: rgb(233,53,55); fill-rule: nonzero; opacity: 1;" vector-effect="non-scaling-stroke"  transform=" translate(-0.96, -4.5)" d="M 0 0 C 1.485 0.99 1.485 0.99 3 2 C 2.34 4.31 1.68 6.62 1 9 C 0.34 9 -0.32 9 -1 9 C -1.09765625 2.84765625 -1.09765625 2.84765625 -1 1 C -0.67 0.67 -0.34 0.34 0 0 Z" stroke-linecap="round" />
</g>
		<g transform="matrix(1 0 0 1 -7.11 -46.08)"  >
<path style="stroke: none; stroke-width: 1; stroke-dasharray: none; stroke-linecap: butt; stroke-dashoffset: 0; stroke-linejoin: miter; stroke-miterlimit: 4; fill: rgb(215,59,60); fill-rule: nonzero; opacity: 1;" vector-effect="non-scaling-stroke"  transform=" translate(-2.92, -6.5)" d="M 0 0 C 3.12436746 2.08291164 3.5365026 2.61276477 4.75 5.9375 C 5.14445313 6.97197266 5.14445313 6.97197266 5.546875 8.02734375 C 6 10 6 10 5 13 C 4.16209211 11.21046815 3.32980604 9.41830305 2.5 7.625 C 1.80390625 6.12839844 1.80390625 6.12839844 1.09375 4.6015625 C 0 2 0 2 0 0 Z" stroke-linecap="round" />
</g>
		<g transform="matrix(1 0 0 1 -142.03 64.42)"  >
<path style="stroke: none; stroke-width: 1; stroke-dasharray: none; stroke-linecap: butt; stroke-dashoffset: 0; stroke-linejoin: miter; stroke-miterlimit: 4; fill: rgb(214,53,62); fill-rule: nonzero; opacity: 1;" vector-effect="non-scaling-stroke"  transform=" translate(3, -4)" d="M 0 0 C 0 0.99 0 1.98 0 3 C -0.66 3 -1.32 3 -2 3 C -2.33 4.65 -2.66 6.3 -3 8 C -3.99 7.67 -4.98 7.34 -6 7 C -5.8125 5.1875 -5.8125 5.1875 -5 3 C -2.4375 1.25 -2.4375 1.25 0 0 Z" stroke-linecap="round" />
</g>
		<g transform="matrix(1 0 0 1 -79.53 64.92)"  >
<path style="stroke: none; stroke-width: 1; stroke-dasharray: none; stroke-linecap: butt; stroke-dashoffset: 0; stroke-linejoin: miter; stroke-miterlimit: 4; fill: rgb(218,61,62); fill-rule: nonzero; opacity: 1;" vector-effect="non-scaling-stroke"  transform=" translate(-4.5, -2.5)" d="M 0 0 C 3.375 0.25 3.375 0.25 7 1 C 8.4375 3.0625 8.4375 3.0625 9 5 C 4.68607774 4.5206753 2.83430453 3.2542015 0 0 Z" stroke-linecap="round" />
</g>
		<g transform="matrix(1 0 0 1 90.08 6.92)"  >
<path style="stroke: none; stroke-width: 1; stroke-dasharray: none; stroke-linecap: butt; stroke-dashoffset: 0; stroke-linejoin: miter; stroke-miterlimit: 4; fill: rgb(226,58,61); fill-rule: nonzero; opacity: 1;" vector-effect="non-scaling-stroke"  transform=" translate(-1.11, -4.5)" d="M 0 0 C 0.66 0 1.32 0 2 0 C 2.625 2.8125 2.625 2.8125 3 6 C 2.01 7.485 2.01 7.485 1 9 C -0.61949011 6.42786866 -1.04408751 5.32330841 -0.625 2.25 C -0.41875 1.5075 -0.2125 0.765 0 0 Z" stroke-linecap="round" />
</g>
		<g transform="matrix(1 0 0 1 227.41 -12.08)"  >
<path style="stroke: none; stroke-width: 1; stroke-dasharray: none; stroke-linecap: butt; stroke-dashoffset: 0; stroke-linejoin: miter; stroke-miterlimit: 4; fill: rgb(226,59,61); fill-rule: nonzero; opacity: 1;" vector-effect="non-scaling-stroke"  transform=" translate(-2.44, -3.5)" d="M 0 0 C 1.7074998 1.28062485 3.37373596 2.61767557 5 4 C 5 4.66 5 5.32 5 6 C 4.01 6.33 3.02 6.66 2 7 C 0 5 0 5 -0.125 2.375 C -0.08375 1.59125 -0.0425 0.8075 0 0 Z" stroke-linecap="round" />
</g>
		<g transform="matrix(1 0 0 1 55.97 58.42)"  >
<path style="stroke: none; stroke-width: 1; stroke-dasharray: none; stroke-linecap: butt; stroke-dashoffset: 0; stroke-linejoin: miter; stroke-miterlimit: 4; fill: rgb(233,57,58); fill-rule: nonzero; opacity: 1;" vector-effect="non-scaling-stroke"  transform=" translate(-2, -4)" d="M 0 0 C 1.32 0.99 2.64 1.98 4 3 C 3.6875 4.9375 3.6875 4.9375 3 7 C 2.01 7.33 1.02 7.66 0 8 C 0 5.36 0 2.72 0 0 Z" stroke-linecap="round" />
</g>
		<g transform="matrix(1 0 0 1 55.97 47.3)"  >
<path style="stroke: none; stroke-width: 1; stroke-dasharray: none; stroke-linecap: butt; stroke-dashoffset: 0; stroke-linejoin: miter; stroke-miterlimit: 4; fill: rgb(242,54,51); fill-rule: nonzero; opacity: 1;" vector-effect="non-scaling-stroke"  transform=" translate(-2, -2.88)" d="M 0 0 C 0.66 0 1.32 0 2 0 C 3.625 2.5 3.625 2.5 5 5 C 2 6 2 6 -1 5 C -0.67 3.35 -0.34 1.7 0 0 Z" stroke-linecap="round" />
</g>
		<g transform="matrix(1 0 0 1 -182.03 -3.58)"  >
<path style="stroke: none; stroke-width: 1; stroke-dasharray: none; stroke-linecap: butt; stroke-dashoffset: 0; stroke-linejoin: miter; stroke-miterlimit: 4; fill: rgb(222,55,60); fill-rule: nonzero; opacity: 1;" vector-effect="non-scaling-stroke"  transform=" translate(4, -3)" d="M 0 0 C 0 0.66 0 1.32 0 2 C -0.99 2 -1.98 2 -3 2 C -3 3.32 -3 4.64 -3 6 C -4.65 5.67 -6.3 5.34 -8 5 C -3.16129032 0 -3.16129032 0 0 0 Z" stroke-linecap="round" />
</g>
		<g transform="matrix(1 0 0 1 -5.53 -24.58)"  >
<path style="stroke: none; stroke-width: 1; stroke-dasharray: none; stroke-linecap: butt; stroke-dashoffset: 0; stroke-linejoin: miter; stroke-miterlimit: 4; fill: rgb(237,51,43); fill-rule: nonzero; opacity: 1;" vector-effect="non-scaling-stroke"  transform=" translate(-2.5, -2)" d="M 0 0 C 1.65 0 3.3 0 5 0 C 4.67 1.32 4.34 2.64 4 4 C 2.68 4 1.36 4 0 4 C 0 2.68 0 1.36 0 0 Z" stroke-linecap="round" />
</g>
		<g transform="matrix(1 0 0 1 -191.03 62.92)"  >
<path style="stroke: none; stroke-width: 1; stroke-dasharray: none; stroke-linecap: butt; stroke-dashoffset: 0; stroke-linejoin: miter; stroke-miterlimit: 4; fill: rgb(238,53,59); fill-rule: nonzero; opacity: 1;" vector-effect="non-scaling-stroke"  transform=" translate(-3, -1.5)" d="M 0 0 C 2.31 0.33 4.62 0.66 7 1 C 7 1.66 7 2.32 7 3 C 4.36 2.67 1.72 2.34 -1 2 C -0.67 1.34 -0.34 0.68 0 0 Z" stroke-linecap="round" />
</g>
		<g transform="matrix(1 0 0 1 187.97 36.92)"  >
<path style="stroke: none; stroke-width: 1; stroke-dasharray: none; stroke-linecap: butt; stroke-dashoffset: 0; stroke-linejoin: miter; stroke-miterlimit: 4; fill: rgb(225,59,59); fill-rule: nonzero; opacity: 1;" vector-effect="non-scaling-stroke"  transform=" translate(-2, -4.5)" d="M 0 0 C 1.99097846 2.98646769 2.94124926 5.59687262 4 9 C 3.01 9 2.02 9 1 9 C 0.67 6.03 0.34 3.06 0 0 Z" stroke-linecap="round" />
</g>
		<g transform="matrix(1 0 0 1 185.97 28.92)"  >
<path style="stroke: none; stroke-width: 1; stroke-dasharray: none; stroke-linecap: butt; stroke-dashoffset: 0; stroke-linejoin: miter; stroke-miterlimit: 4; fill: rgb(236,55,55); fill-rule: nonzero; opacity: 1;" vector-effect="non-scaling-stroke"  transform=" translate(-3, -3.5)" d="M 0 0 C 0.66 0 1.32 0 2 0 C 2 0.66 2 1.32 2 2 C 3.32 2.33 4.64 2.66 6 3 C 5.01 3 4.02 3 3 3 C 3 4.32 3 5.64 3 7 C 2.34 7 1.68 7 1 7 C 0.67 4.69 0.34 2.38 0 0 Z" stroke-linecap="round" />
</g>
		<g transform="matrix(1 0 0 1 206.47 -24.08)"  >
<path style="stroke: none; stroke-width: 1; stroke-dasharray: none; stroke-linecap: butt; stroke-dashoffset: 0; stroke-linejoin: miter; stroke-miterlimit: 4; fill: rgb(243,43,41); fill-rule: nonzero; opacity: 1;" vector-effect="non-scaling-stroke"  transform=" translate(-3.5, -1.5)" d="M 0 0 C 2.31 0 4.62 0 7 0 C 6.67 0.99 6.34 1.98 6 3 C 4.02 3 2.04 3 0 3 C 0 2.01 0 1.02 0 0 Z" stroke-linecap="round" />
</g>
		<g transform="matrix(1 0 0 1 50.47 54.42)"  >
<path style="stroke: none; stroke-width: 1; stroke-dasharray: none; stroke-linecap: butt; stroke-dashoffset: 0; stroke-linejoin: miter; stroke-miterlimit: 4; fill: rgb(247,38,35); fill-rule: nonzero; opacity: 1;" vector-effect="non-scaling-stroke"  transform=" translate(-1.5, -2)" d="M 0 0 C 1.65 0 3.3 0 5 0 C 5 0.99 5 1.98 5 3 C 2.69 3.33 0.38 3.66 -2 4 C -2 3.34 -2 2.68 -2 2 C -1.34 2 -0.68 2 0 2 C 0 1.34 0 0.68 0 0 Z" stroke-linecap="round" />
</g>
		<g transform="matrix(1 0 0 1 91.48 49.92)"  >
<path style="stroke: none; stroke-width: 1; stroke-dasharray: none; stroke-linecap: butt; stroke-dashoffset: 0; stroke-linejoin: miter; stroke-miterlimit: 4; fill: rgb(223,57,45); fill-rule: nonzero; opacity: 1;" vector-effect="non-scaling-stroke"  transform=" translate(0.49, -4.5)" d="M 0 0 C 0.97608217 2.92824652 1.08226668 4.95613276 1 8 C 0.01 8.33 -0.98 8.66 -2 9 C -1.125 2.25 -1.125 2.25 0 0 Z" stroke-linecap="round" />
</g>
		<g transform="matrix(1 0 0 1 -110.03 -21.58)"  >
<path style="stroke: none; stroke-width: 1; stroke-dasharray: none; stroke-linecap: butt; stroke-dashoffset: 0; stroke-linejoin: miter; stroke-miterlimit: 4; fill: rgb(239,49,54); fill-rule: nonzero; opacity: 1;" vector-effect="non-scaling-stroke"  transform=" translate(-1, -3)" d="M 0 0 C 0.66 0 1.32 0 2 0 C 2.33 1.98 2.66 3.96 3 6 C 1.68 5.34 0.36 4.68 -1 4 C -0.67 2.68 -0.34 1.36 0 0 Z" stroke-linecap="round" />
</g>
</g>
</g>
</svg>